<svg width="113px" height="27px" viewBox="0 0 113 27" version="1.1" xmlns="http://www.w3.org/2000/svg" xmlns:xlink="http://www.w3.org/1999/xlink">
    <g id="Page-1" stroke="none" stroke-width="1" fill="none" fill-rule="evenodd">
        <g id="Desktop-HD" transform="translate(-10.000000, -17.000000)" fill="#0F426F" fill-rule="nonzero">
            <g id="leasy_logo_200224_mn-13" transform="translate(10.000000, 17.000000)">
                <polygon id="Path" points="43.2 0.2 45.9 0.2 41.8 21 39.1 21"></polygon>
                <path d="M49.5,14.4 L49.5,14.6 C49.5,16 49.9,17 50.7,17.8 C51.5,18.5 52.7,18.9 54.2,18.9 C55.1,18.9 56,18.7 56.8,18.4 C57.6,18.1 58.3,17.7 58.8,17.2 L60,19 C59.3,19.7 58.4,20.2 57.3,20.6 C56.3,21 55.2,21.2 54,21.2 C52.5,21.2 51.3,20.9 50.2,20.4 C49.1,19.9 48.3,19.1 47.7,18.2 C47.1,17.2 46.8,16.1 46.8,14.8 C46.8,13.1 47.2,11.6 47.9,10.3 C48.6,9 49.6,7.9 50.9,7.2 C52.2,6.4 53.7,6 55.2,6 C57.2,6 58.8,6.6 60,7.7 C61.2,8.8 61.8,10.4 61.8,12.4 C61.8,13 61.7,13.7 61.6,14.4 L49.5,14.4 Z M51.7,9.4 C50.7,10.1 50.1,11.2 49.8,12.5 L59.4,12.5 C59.5,11.2 59.1,10.1 58.4,9.4 C57.7,8.7 56.6,8.3 55.2,8.3 C53.8,8.3 52.7,8.6 51.7,9.4 Z" id="Shape"></path>
                <path d="M80.9,6.2 L78,21 L75.4,21 L75.8,19.2 C75.1,19.8 74.3,20.3 73.5,20.7 C72.7,21.1 71.6,21.2 70.6,21.2 C69.3,21.2 68.2,20.9 67.2,20.4 C66.2,19.9 65.4,19.1 64.9,18.2 C64.4,17.3 64,16.1 64,14.8 C64,13.1 64.4,11.6 65.1,10.3 C65.8,9 66.8,7.9 68.1,7.2 C69.4,6.4 70.8,6 72.4,6 C73.7,6 74.8,6.2 75.7,6.7 C76.6,7.1 77.3,7.8 77.8,8.7 L78.3,6.2 L80.9,6.2 Z M74.1,18 C75,17.5 75.7,16.7 76.2,15.8 C76.7,14.8 76.9,13.8 76.9,12.6 C76.9,11.3 76.5,10.2 75.8,9.5 C75,8.8 73.9,8.4 72.5,8.4 C71.4,8.4 70.4,8.7 69.5,9.2 C68.6,9.7 67.9,10.5 67.4,11.4 C66.9,12.4 66.6,13.4 66.6,14.6 C66.6,15.9 67,16.9 67.8,17.7 C68.6,18.4 69.7,18.8 71.1,18.8 C72.2,18.8 73.2,18.6 74.1,18 Z" id="Shape"></path>
                <path d="M84.3,20.7 C83.2,20.4 82.3,20 81.7,19.5 L82.9,17.4 C83.5,17.9 84.2,18.2 85.2,18.5 C86.2,18.8 87.1,18.9 88.1,18.9 C89.4,18.9 90.3,18.7 91,18.3 C91.7,17.9 92,17.4 92,16.7 C92,16.1 91.7,15.7 91.2,15.5 C90.7,15.3 89.8,15 88.7,14.8 C87.7,14.6 86.8,14.3 86.1,14.1 C85.4,13.9 84.9,13.5 84.4,13 C83.9,12.5 83.7,11.8 83.7,10.9 C83.7,9.9 84,9.1 84.5,8.4 C85,7.7 85.8,7.1 86.9,6.7 C87.9,6.3 89.1,6.1 90.4,6.1 C91.4,6.1 92.4,6.2 93.3,6.5 C94.2,6.7 95,7.1 95.6,7.5 L94.5,9.6 C93.9,9.2 93.2,8.9 92.5,8.7 C91.7,8.5 90.9,8.4 90.1,8.4 C88.9,8.4 88,8.6 87.3,9 C86.6,9.4 86.3,9.9 86.3,10.6 C86.3,11.2 86.6,11.6 87.1,11.9 C87.6,12.2 88.5,12.4 89.6,12.6 C90.6,12.8 91.5,13 92.1,13.3 C92.8,13.5 93.3,13.9 93.8,14.4 C94.3,14.9 94.5,15.6 94.5,16.4 C94.5,17.9 93.9,19.1 92.6,19.9 C91.4,20.7 89.7,21.2 87.7,21.2 C86.6,21.2 85.4,21 84.3,20.7 Z" id="Path"></path>
                <path d="M112.9,6.2 L102.4,22.7 C101.4,24.2 100.5,25.2 99.7,25.8 C98.8,26.4 97.8,26.7 96.6,26.7 C95.9,26.7 95.2,26.6 94.5,26.4 C93.8,26.2 93.3,25.8 92.9,25.4 L94.3,23.4 C95,24.1 95.8,24.4 96.8,24.4 C97.4,24.4 98,24.2 98.5,23.9 C99,23.6 99.5,23 100,22.2 L100.8,21 L97.2,6.2 L99.9,6.2 L102.8,18.1 L110.3,6.2 L112.9,6.2 Z" id="Path"></path>
                <polygon id="Path" points="30.1 16.2 28.4 13.7 31.6 9.8 9.67679223 9.8 11.8199835 6.9 31.6 6.9 28.1 2.6 29.7 0.2 36.4 8.4"></polygon>
                <polygon id="Path" points="6.4 21 8 18.5 4.9 14.6 24.1367536 14.6 26.5882998 11.8 4.9 11.8 8.4 7.5 6.7 5 0 13.2"></polygon>
            </g>
        </g>
    </g>
</svg>
